<?xml version="1.0" encoding="utf-8"?>
<!-- Generator: Adobe Illustrator 19.2.1, SVG Export Plug-In . SVG Version: 6.00 Build 0)  -->
<svg version="1.1" xmlns="http://www.w3.org/2000/svg" xmlns:xlink="http://www.w3.org/1999/xlink" x="0px" y="0px"
	 viewBox="0 0 64 64" style="enable-background:new 0 0 64 64;" xml:space="preserve">
<style type="text/css">
	.st0{fill:#2288BB;}
	.st1{fill:#3391C0;}
	.st2{display:none;}
	.st3{display:inline;fill:#FFFFFF;}
	.st4{fill:#FFFFFF;}
</style>
<g id="Background">
	<rect y="0" class="st0" width="64" height="64"/>
	<polygon class="st1" points="64,0 0,0 0,64 	"/>
</g>
<g id="Letter_Blocks_copy" class="st2">
	<rect x="40" y="44" class="st3" width="8" height="8"/>
	<rect x="40" y="36" class="st3" width="8" height="8"/>
	<rect x="40" y="28" class="st3" width="8" height="8"/>
	<rect x="40" y="20" class="st3" width="8" height="8"/>
	<rect x="40" y="12" class="st3" width="8" height="8"/>
	<rect x="32" y="28" class="st3" width="8" height="8"/>
	<rect x="32" y="12" class="st3" width="8" height="8"/>
	<rect x="24" y="28" class="st3" width="8" height="8"/>
	<rect x="24" y="12" class="st3" width="8" height="8"/>
	<rect x="16" y="44" class="st3" width="8" height="8"/>
	<rect x="16" y="36" class="st3" width="8" height="8"/>
	<rect x="16" y="28" class="st3" width="8" height="8"/>
	<rect x="16" y="20" class="st3" width="8" height="8"/>
	<rect x="16" y="12" class="st3" width="8" height="8"/>
</g>
<g id="Merged_Letter">
	<path class="st4" d="M16,12v40h8V36h16v16h8V12H16z M24,28v-8h16v8H24z"/>
</g>
</svg>
