<?xml version="1.0" encoding="utf-8"?>
<!-- Generator: Adobe Illustrator 19.2.1, SVG Export Plug-In . SVG Version: 6.00 Build 0)  -->
<svg version="1.1" xmlns="http://www.w3.org/2000/svg" xmlns:xlink="http://www.w3.org/1999/xlink" x="0px" y="0px"
	 viewBox="0 0 100 100" style="enable-background:new 0 0 100 100;" xml:space="preserve">
<style type="text/css">
	.st0{fill:#2288BB;}
	.st1{fill:#3391C0;}
	.st2{display:none;}
	.st3{display:inline;fill:#FFFFFF;}
	.st4{fill:#FFFFFF;}
</style>
<g id="Background">
	<rect class="st0" width="100" height="100"/>
	<polygon class="st1" points="100,0 0,0 0,100 	"/>
</g>
<g id="Letter_Blocks_copy_2" class="st2">
	<rect x="74.5" y="53.5" class="st3" width="7" height="7"/>
	<rect x="74.5" y="60.5" class="st3" width="7" height="7"/>
	<rect x="74.5" y="46.5" class="st3" width="7" height="7"/>
	<rect x="74.5" y="39.5" class="st3" width="7" height="7"/>
	<rect x="74.5" y="32.5" class="st3" width="7" height="7"/>
	<rect x="67.5" y="39.5" class="st3" width="7" height="7"/>
	<rect x="60.5" y="53.5" class="st3" width="7" height="7"/>
	<rect x="60.5" y="39.5" class="st3" width="7" height="7"/>
	<rect x="53.5" y="53.5" class="st3" width="7" height="7"/>
	<rect x="53.5" y="39.5" class="st3" width="7" height="7"/>
	<rect x="46.5" y="53.5" class="st3" width="7" height="7"/>
	<rect x="39.5" y="60.5" class="st3" width="7" height="7"/>
	<rect x="39.5" y="53.5" class="st3" width="7" height="7"/>
	<rect x="39.5" y="46.5" class="st3" width="7" height="7"/>
	<rect x="39.5" y="39.5" class="st3" width="7" height="7"/>
	<rect x="39.5" y="32.5" class="st3" width="7" height="7"/>
	<rect x="32.5" y="46.5" class="st3" width="7" height="7"/>
	<rect x="32.5" y="32.5" class="st3" width="7" height="7"/>
	<rect x="25.5" y="46.5" class="st3" width="7" height="7"/>
	<rect x="25.5" y="32.5" class="st3" width="7" height="7"/>
	<rect x="18.5" y="60.5" class="st3" width="7" height="7"/>
	<rect x="18.5" y="53.5" class="st3" width="7" height="7"/>
	<rect x="18.5" y="46.5" class="st3" width="7" height="7"/>
	<rect x="18.5" y="39.5" class="st3" width="7" height="7"/>
	<rect x="18.5" y="32.5" class="st3" width="7" height="7"/>
</g>
<g id="Merged_Letters">
	<g>
		<polygon class="st4" points="74.5,67.5 81.5,67.5 81.5,32.5 74.5,32.5 74.5,39.5 53.5,39.5 53.5,46.5 74.5,46.5 		"/>
		<path class="st4" d="M46.5,53.5v-21h-28v35h7v-14h14v14h7v-7h21v-7H46.5z M39.5,39.5v7h-14v-7H39.5z"/>
	</g>
</g>
</svg>
