<?xml version="1.0" encoding="utf-8"?>
<!-- Generator: Adobe Illustrator 19.2.1, SVG Export Plug-In . SVG Version: 6.00 Build 0)  -->
<svg version="1.1" xmlns="http://www.w3.org/2000/svg" xmlns:xlink="http://www.w3.org/1999/xlink" x="0px" y="0px"
	 viewBox="0 0 100 100" style="enable-background:new 0 0 100 100;" xml:space="preserve">
<style type="text/css">
	.st0{fill:#2288BB;}
	.st1{fill:#3391C0;}
	.st2{display:none;}
	.st3{display:inline;fill:#FFFFFF;}
	.st4{fill:#FFFFFF;}
</style>
<g id="Background">
	<rect class="st0" width="100" height="100"/>
	<polygon class="st1" points="100,0 0,0 0,100 	"/>
</g>
<g id="Letter_Blocks_copy_2" class="st2">
	<rect x="74.5" y="53.5" class="st3" width="7" height="7"/>
	<rect x="74.5" y="60.5" class="st3" width="7" height="7"/>
	<rect x="74.5" y="46.5" class="st3" width="7" height="7"/>
	<rect x="74.5" y="39.5" class="st3" width="7" height="7"/>
	<rect x="74.5" y="32.5" class="st3" width="7" height="7"/>
	<rect x="67.5" y="39.5" class="st3" width="7" height="7"/>
	<rect x="60.5" y="53.5" class="st3" width="7" height="7"/>
	<rect x="60.5" y="39.5" class="st3" width="7" height="7"/>
	<rect x="53.5" y="53.5" class="st3" width="7" height="7"/>
	<rect x="53.5" y="39.5" class="st3" width="7" height="7"/>
	<rect x="46.5" y="53.5" class="st3" width="7" height="7"/>
	<rect x="39.5" y="60.5" class="st3" width="7" height="7"/>
	<rect x="39.5" y="53.5" class="st3" width="7" height="7"/>
	<rect x="39.5" y="46.5" class="st3" width="7" height="7"/>
	<rect x="39.5" y="39.5" class="st3" width="7" height="7"/>
	<rect x="39.5" y="32.5" class="st3" width="7" height="7"/>
	<rect x="32.5" y="46.5" class="st3" width="7" height="7"/>
	<rect x="32.5" y="32.5" class="st3" width="7" height="7"/>
	<rect x="25.5" y="46.5" class="st3" width="7" height="7"/>
	<rect x="25.5" y="32.5" class="st3" width="7" height="7"/>
	<rect x="18.5" y="60.5" class="st3" width="7" height="7"/>
	<rect x="18.5" y="53.5" class="st3" width="7" height="7"/>
	<rect x="18.5" y="46.5" class="st3" width="7" height="7"/>
	<rect x="18.5" y="39.5" class="st3" width="7" height="7"/>
	<rect x="18.5" y="32.5" class="st3" width="7" height="7"/>
</g>
<g id="Merged_Letters">
	<g>
		<polygon class="st4" points="74.89,67.78 82,67.78 82,32.22 74.89,32.22 74.89,39.33 53.56,39.33 53.56,46.44 74.89,46.44 		"/>
		<path class="st4" d="M46.44,53.56V32.22H18v35.56h7.11V53.56h14.22v14.22h7.11v-7.11h21.33v-7.11H46.44z M39.33,39.33v7.11H25.11
			v-7.11H39.33z"/>
	</g>
</g>
</svg>
