<?xml version="1.0" encoding="utf-8"?>
<!-- Generator: Adobe Illustrator 19.2.1, SVG Export Plug-In . SVG Version: 6.00 Build 0)  -->
<svg version="1.1" xmlns="http://www.w3.org/2000/svg" xmlns:xlink="http://www.w3.org/1999/xlink" x="0px" y="0px"
	 viewBox="0 0 100 100" style="enable-background:new 0 0 100 100;" xml:space="preserve">
<style type="text/css">
	.st0{fill:#2288BB;}
	.st1{fill:#3391C0;}
	.st2{display:none;}
	.st3{display:inline;fill:#FFFFFF;}
	.st4{fill:#FFFFFF;}
</style>
<g id="Background">
	<rect class="st0" width="100" height="100"/>
	<polygon class="st1" points="100,0 0,0 0,100 	"/>
</g>
<g id="Letter_Blocks_copy" class="st2">
	<rect x="78" y="54" class="st3" width="8" height="8"/>
	<rect x="78" y="62" class="st3" width="8" height="8"/>
	<rect x="78" y="46" class="st3" width="8" height="8"/>
	<rect x="78" y="38" class="st3" width="8" height="8"/>
	<rect x="78" y="30" class="st3" width="8" height="8"/>
	<rect x="70" y="38" class="st3" width="8" height="8"/>
	<rect x="62" y="54" class="st3" width="8" height="8"/>
	<rect x="62" y="38" class="st3" width="8" height="8"/>
	<rect x="54" y="54" class="st3" width="8" height="8"/>
	<rect x="54" y="38" class="st3" width="8" height="8"/>
	<rect x="46" y="54" class="st3" width="8" height="8"/>
	<rect x="38" y="62" class="st3" width="8" height="8"/>
	<rect x="38" y="54" class="st3" width="8" height="8"/>
	<rect x="38" y="46" class="st3" width="8" height="8"/>
	<rect x="38" y="38" class="st3" width="8" height="8"/>
	<rect x="38" y="30" class="st3" width="8" height="8"/>
	<rect x="30" y="46" class="st3" width="8" height="8"/>
	<rect x="30" y="30" class="st3" width="8" height="8"/>
	<rect x="22" y="46" class="st3" width="8" height="8"/>
	<rect x="22" y="30" class="st3" width="8" height="8"/>
	<rect x="14" y="62" class="st3" width="8" height="8"/>
	<rect x="14" y="54" class="st3" width="8" height="8"/>
	<rect x="14" y="46" class="st3" width="8" height="8"/>
	<rect x="14" y="38" class="st3" width="8" height="8"/>
	<rect x="14" y="30" class="st3" width="8" height="8"/>
</g>
<g id="Merged_Letters">
	<g>
		<polygon class="st4" points="86,30 78,30 78,38 54,38 54,46 78,46 78,70 86,70 		"/>
		<path class="st4" d="M46,54V30H14v40h8V54h16v16h8v-8h24v-8H46z M22,46v-8h16v8H22z"/>
	</g>
</g>
</svg>
