<svg version="1.2" xmlns="http://www.w3.org/2000/svg" viewBox="0 0 100 100" width="100" height="100">
	<style>
		.s0 { fill: #000000 } 
	</style>
	<g id="Sun">
		<path id="sun" fill-rule="evenodd" class="s0" d="m50 80c-16.59 0-30-13.41-30-30 0-16.59 13.41-30 30-30 16.59 0 30 13.41 30 30 0 16.59-13.41 30-30 30zm24-30c0-13.27-10.73-24-24-24-13.27 0-24 10.73-24 24 0 13.27 10.73 24 24 24 13.27 0 24-10.73 24-24z"/>
		<path id="sun-fill" fill-rule="evenodd" class="s0" d="m50 77c-14.93 0-27-12.07-27-27 0-14.93 12.07-27 27-27 14.93 0 27 12.07 27 27 0 14.93-12.07 27-27 27z"/>
		<path id="light-ray-8" class="s0" d="m14.64 18.89c-1.17-1.18-1.17-3.07 0-4.25 1.18-1.17 3.07-1.17 4.25 0 1.17 1.18 1.17 3.07 0 4.25-1.18 1.17-3.07 1.17-4.25 0zm7.08 7.07c-1.18-1.17-1.18-3.07 0-4.24 1.17-1.18 3.07-1.18 4.24 0 1.17 1.17 1.17 3.07 0 4.24-1.17 1.17-3.07 1.17-4.24 0zm4.24-4.24l-4.24 4.24-7.08-7.07 4.25-4.25z"/>
		<path id="light-ray-7" class="s0" d="m3 53c-1.66 0-3-1.34-3-3 0-1.66 1.34-3 3-3 1.66 0 3 1.34 3 3 0 1.66-1.34 3-3 3zm10 0c-1.66 0-3-1.34-3-3 0-1.66 1.34-3 3-3 1.66 0 3 1.34 3 3 0 1.66-1.34 3-3 3zm0-6v6h-10v-6z"/>
		<path id="light-ray-6" class="s0" d="m21.72 74.04c1.17-1.17 3.07-1.17 4.24 0 1.17 1.17 1.17 3.07 0 4.24-1.17 1.18-3.07 1.18-4.24 0-1.18-1.17-1.18-3.07 0-4.24zm-7.08 7.07c1.18-1.17 3.07-1.17 4.25 0 1.17 1.18 1.17 3.07 0 4.25-1.18 1.17-3.07 1.17-4.25 0-1.17-1.18-1.17-3.07 0-4.25zm4.25 4.25l-4.25-4.25 7.08-7.07 4.24 4.24z"/>
		<path id="light-ray-5" class="s0" d="m47 87c0-1.66 1.34-3 3-3 1.66 0 3 1.34 3 3 0 1.66-1.34 3-3 3-1.66 0-3-1.34-3-3zm0 10c0-1.66 1.34-3 3-3 1.66 0 3 1.34 3 3 0 1.66-1.34 3-3 3-1.66 0-3-1.34-3-3zm6 0h-6v-10h6z"/>
		<path id="light-ray-4" class="s0" d="m74.04 78.28c-1.17-1.17-1.17-3.07 0-4.24 1.17-1.17 3.07-1.17 4.24 0 1.18 1.17 1.18 3.07 0 4.24-1.17 1.18-3.07 1.18-4.24 0zm7.07 7.08c-1.17-1.18-1.17-3.07 0-4.25 1.18-1.17 3.07-1.17 4.25 0 1.17 1.18 1.17 3.07 0 4.25-1.18 1.17-3.07 1.17-4.25 0zm4.25-4.25l-4.25 4.25-7.07-7.08 4.24-4.24z"/>
		<path id="light-ray-3" class="s0" d="m87 53c-1.66 0-3-1.34-3-3 0-1.66 1.34-3 3-3 1.66 0 3 1.34 3 3 0 1.66-1.34 3-3 3zm10 0c-1.66 0-3-1.34-3-3 0-1.66 1.34-3 3-3 1.66 0 3 1.34 3 3 0 1.66-1.34 3-3 3zm0-6v6h-10v-6z"/>
		<path id="light-ray-2" class="s0" d="m81.11 14.64c1.18-1.17 3.07-1.17 4.25 0 1.17 1.18 1.17 3.07 0 4.25-1.18 1.17-3.07 1.17-4.25 0-1.17-1.18-1.17-3.07 0-4.25zm-7.07 7.08c1.17-1.18 3.07-1.18 4.24 0 1.18 1.17 1.18 3.07 0 4.24-1.17 1.17-3.07 1.17-4.24 0-1.17-1.17-1.17-3.07 0-4.24zm4.24 4.24l-4.24-4.24 7.07-7.08 4.25 4.25z"/>
		<path id="light-ray-1" class="s0" d="m47 3c0-1.66 1.34-3 3-3 1.66 0 3 1.34 3 3 0 1.66-1.34 3-3 3-1.66 0-3-1.34-3-3zm0 10c0-1.66 1.34-3 3-3 1.66 0 3 1.34 3 3 0 1.66-1.34 3-3 3-1.66 0-3-1.34-3-3zm6 0h-6v-10h6z"/>
	</g>
</svg>